<svg width="32" height="33" viewBox="0 0 32 33" fill="none" xmlns="http://www.w3.org/2000/svg">
<g id="Social Icons">
<path id="BG" d="M32 16.1998C32 7.36227 24.8375 0.199768 16 0.199768C7.1625 0.199768 0 7.36227 0 16.1998C0 24.1873 5.85 30.806 13.5 32.006V20.8248H9.4375V16.1998H13.5V12.6748C13.5 8.66539 15.8875 6.44977 19.5438 6.44977C21.2938 6.44977 23.125 6.76227 23.125 6.76227V10.6998H21.1063C19.1188 10.6998 18.5 11.9341 18.5 13.1998V16.1998H22.9375L22.2281 20.8248H18.5V32.006C26.15 30.806 32 24.1873 32 16.1998Z" fill="#1877F2"/>
<path id="Path" d="M22.2281 20.8248L22.9375 16.1998H18.5V13.1998C18.5 11.9341 19.1188 10.6998 21.1063 10.6998H23.125V6.76227C23.125 6.76227 21.2938 6.44977 19.5438 6.44977C15.8875 6.44977 13.5 8.66539 13.5 12.6748V16.1998H9.4375V20.8248H13.5V32.006C14.3156 32.1341 15.15 32.1998 16 32.1998C16.85 32.1998 17.6844 32.1341 18.5 32.006V20.8248H22.2281Z" fill="white"/>
</g>
</svg>
